<svg xmlns="http://www.w3.org/2000/svg" viewBox="0 0 1100 760" width="100%" height="100%" style="background:#0f172a;font-family:Arial,Helvetica,sans-serif;">
  <defs>
    <marker id="arrow" viewBox="0 0 10 10" refX="9" refY="5" markerWidth="6" markerHeight="6" orient="auto-start-reverse">
      <path d="M 0 1 L 10 5 L 0 9 z" fill="#38bdf8"/>
    </marker>
    <marker id="arrowGreen" viewBox="0 0 10 10" refX="9" refY="5" markerWidth="6" markerHeight="6" orient="auto-start-reverse">
      <path d="M 0 1 L 10 5 L 0 9 z" fill="#10b981"/>
    </marker>
    <marker id="arrowRed" viewBox="0 0 10 10" refX="9" refY="5" markerWidth="6" markerHeight="6" orient="auto-start-reverse">
      <path d="M 0 1 L 10 5 L 0 9 z" fill="#ef4444"/>
    </marker>
    <marker id="arrowPurple" viewBox="0 0 10 10" refX="9" refY="5" markerWidth="6" markerHeight="6" orient="auto-start-reverse">
      <path d="M 0 1 L 10 5 L 0 9 z" fill="#c084fc"/>
    </marker>
  </defs>

  <!-- Title Banner -->
  <rect x="30" y="20" width="1040" height="48" rx="8" fill="#1e293b" stroke="#334155" stroke-width="1.5"/>
  <rect x="30" y="20" width="6" height="48" rx="3" fill="#38bdf8"/>
  <text x="50" y="50" fill="#ffffff" font-size="18" font-weight="bold">VOTEPULSE: END-TO-END SECURE BALLOT CASTING SEQUENCE DIAGRAM</text>
  <text x="1050" y="50" fill="#38bdf8" font-size="12" font-weight="bold" text-anchor="end">CONCURRENCY &amp; CRYPTOGRAPHIC SEAL FLOW</text>

  <!-- Lifeline Headers -->
  <!-- 1. Voter Client -->
  <rect x="40" y="90" width="120" height="40" rx="6" fill="#1e293b" stroke="#38bdf8" stroke-width="1.5"/>
  <text x="100" y="115" fill="#38bdf8" font-size="12" font-weight="bold" text-anchor="middle">Voter (PWA Client)</text>
  <line x1="100" y1="130" x2="100" y2="720" stroke="#334155" stroke-dasharray="4,4"/>

  <!-- 2. React Portal -->
  <rect x="220" y="90" width="130" height="40" rx="6" fill="#1e293b" stroke="#38bdf8" stroke-width="1.5"/>
  <text x="285" y="115" fill="#ffffff" font-size="12" font-weight="bold" text-anchor="middle">VoterPortal (React)</text>
  <line x1="285" y1="130" x2="285" y2="720" stroke="#334155" stroke-dasharray="4,4"/>

  <!-- 3. Express REST API -->
  <rect x="420" y="90" width="130" height="40" rx="6" fill="#1e293b" stroke="#60a5fa" stroke-width="1.5"/>
  <text x="485" y="115" fill="#60a5fa" font-size="12" font-weight="bold" text-anchor="middle">Express Server (/api)</text>
  <line x1="485" y1="130" x2="485" y2="720" stroke="#334155" stroke-dasharray="4,4"/>

  <!-- 4. Security Middleware -->
  <rect x="610" y="90" width="130" height="40" rx="6" fill="#1e293b" stroke="#f59e0b" stroke-width="1.5"/>
  <text x="675" y="115" fill="#f59e0b" font-size="12" font-weight="bold" text-anchor="middle">Security Middleware</text>
  <line x1="675" y1="130" x2="675" y2="720" stroke="#334155" stroke-dasharray="4,4"/>

  <!-- 5. Cipher & Hash Engine -->
  <rect x="790" y="90" width="130" height="40" rx="6" fill="#1e293b" stroke="#c084fc" stroke-width="1.5"/>
  <text x="855" y="115" fill="#c084fc" font-size="12" font-weight="bold" text-anchor="middle">Crypto / Hash Engine</text>
  <line x1="855" y1="130" x2="855" y2="720" stroke="#334155" stroke-dasharray="4,4"/>

  <!-- 6. Database Layer -->
  <rect x="960" y="90" width="110" height="40" rx="6" fill="#1e293b" stroke="#10b981" stroke-width="1.5"/>
  <text x="1015" y="115" fill="#10b981" font-size="12" font-weight="bold" text-anchor="middle">Database / Memory</text>
  <line x1="1015" y1="130" x2="1015" y2="720" stroke="#334155" stroke-dasharray="4,4"/>

  <!-- Activations -->
  <rect x="95" y="150" width="10" height="540" fill="#334155"/>
  <rect x="280" y="155" width="10" height="520" fill="#334155"/>
  <rect x="480" y="210" width="10" height="440" fill="#3b82f6"/>
  <rect x="670" y="240" width="10" height="150" fill="#f59e0b"/>
  <rect x="850" y="440" width="10" height="90" fill="#a855f7"/>
  <rect x="1010" y="320" width="10" height="270" fill="#10b981"/>

  <!-- Step 1: User clicks vote -->
  <line x1="105" y1="170" x2="280" y2="170" stroke="#38bdf8" stroke-width="1.8" marker-end="url(#arrow)"/>
  <text x="190" y="163" fill="#e2e8f0" font-size="10.5" text-anchor="middle">1. Select Candidate &amp; Confirm Vote</text>

  <!-- Step 2: HTTP POST /api/vote -->
  <line x1="290" y1="215" x2="480" y2="215" stroke="#38bdf8" stroke-width="2" marker-end="url(#arrow)"/>
  <text x="385" y="208" fill="#38bdf8" font-size="10.5" font-weight="bold" text-anchor="middle">2. POST /api/vote {election_id, voter_id, candidate_id}</text>

  <!-- Step 3: Validate input schema -->
  <line x1="490" y1="245" x2="670" y2="245" stroke="#f59e0b" stroke-width="1.8" marker-end="url(#arrow)"/>
  <text x="580" y="238" fill="#f59e0b" font-size="10.5" text-anchor="middle">3. validateVoteCast(req.body)</text>

  <!-- Step 4: Check election active status -->
  <line x1="680" y1="280" x2="1010" y2="280" stroke="#f59e0b" stroke-width="1.5" marker-end="url(#arrow)"/>
  <text x="845" y="273" fill="#cbd5e1" font-size="10" text-anchor="middle">4. Check Election.status === 'Active'</text>

  <!-- Step 5: Pre-write ledger check -->
  <line x1="680" y1="330" x2="1010" y2="330" stroke="#f59e0b" stroke-width="1.8" marker-end="url(#arrow)"/>
  <text x="845" y="323" fill="#f59e0b" font-size="10.5" font-weight="bold" text-anchor="middle">5. Check user.has_voted &amp; Lock Voter Status</text>

  <!-- Alt Fragment: Double Vote Conflict -->
  <rect x="440" y="355" width="600" height="65" rx="4" fill="#ef4444" fill-opacity="0.1" stroke="#ef4444" stroke-width="1" stroke-dasharray="4,2"/>
  <text x="450" y="372" fill="#ef4444" font-size="9.5" font-weight="bold">[ALT: If already voted (Race Condition Attempt)]</text>
  <line x1="480" y1="400" x2="290" y2="400" stroke="#ef4444" stroke-width="1.8" stroke-dasharray="4,4" marker-end="url(#arrowRed)"/>
  <text x="385" y="394" fill="#fca5a5" font-size="10" font-weight="bold" text-anchor="middle">HTTP 400 Bad Request {already_voted: true}</text>

  <!-- Step 6: Invoke Hash Engine -->
  <line x1="490" y1="450" x2="850" y2="450" stroke="#c084fc" stroke-width="1.8" marker-end="url(#arrowPurple)"/>
  <text x="670" y="443" fill="#c084fc" font-size="10.5" font-weight="bold" text-anchor="middle">6. sha256Hash(ballotPayload) &amp; caesarCipherEncrypt(raw, 3)</text>

  <!-- Step 7: Return cryptographic seal -->
  <line x1="850" y1="510" x2="490" y2="510" stroke="#c084fc" stroke-width="1.8" stroke-dasharray="4,4" marker-end="url(#arrowPurple)"/>
  <text x="670" y="503" fill="#c084fc" font-size="10" text-anchor="middle">7. Return {sha256_seal, caesar_hash, receipt_id}</text>

  <!-- Step 8: Persist Vote -->
  <line x1="490" y1="550" x2="1010" y2="550" stroke="#10b981" stroke-width="2" marker-end="url(#arrowGreen)"/>
  <text x="750" y="543" fill="#10b981" font-size="10.5" font-weight="bold" text-anchor="middle">8. Persist Vote Record &amp; Set voter.has_voted = true</text>

  <!-- Step 9: HTTP 201 Success -->
  <line x1="480" y1="610" x2="290" y2="610" stroke="#10b981" stroke-width="2" marker-end="url(#arrowGreen)"/>
  <text x="385" y="603" fill="#10b981" font-size="10.5" font-weight="bold" text-anchor="middle">9. HTTP 201 Created {success: true, vote: {receipt_id, sha256_seal}}</text>

  <!-- Step 10: Render Receipt -->
  <line x1="280" y1="650" x2="105" y2="650" stroke="#38bdf8" stroke-width="1.8" marker-end="url(#arrow)"/>
  <text x="190" y="643" fill="#e2e8f0" font-size="10.5" text-anchor="middle">10. Display Verified Receipt &amp; Lock Ballot</text>
</svg>